<?xml version="1.0" encoding="UTF-8"?>
<svg xmlns="http://www.w3.org/2000/svg"
     role="img" aria-label="Chartory Tech Gold Logo"
     viewBox="0 0 900 520">
  <defs>
    <!-- 메탈릭 골드 그라디언트 -->
    <linearGradient id="gold" x1="0" y1="0" x2="1" y2="1">
      <stop offset="0%"  stop-color="#FFF4BC"/>
      <stop offset="28%" stop-color="#FFE082"/>
      <stop offset="52%" stop-color="#F4C64F"/>
      <stop offset="76%" stop-color="#D4A733"/>
      <stop offset="100%" stop-color="#B88421"/>
    </linearGradient>

    <linearGradient id="goldRev" x1="1" y1="0" x2="0" y2="1">
      <stop offset="0%"  stop-color="#FFF8D2"/>
      <stop offset="35%" stop-color="#FFE693"/>
      <stop offset="70%" stop-color="#E9BF4F"/>
      <stop offset="100%" stop-color="#B88421"/>
    </linearGradient>

    <!-- 은은한 글로우 -->
    <filter id="softGlow" x="-30%" y="-30%" width="160%" height="160%">
      <feGaussianBlur in="SourceAlpha" stdDeviation="2" result="b"/>
      <feMerge>
        <feMergeNode in="b"/>
        <feMergeNode in="SourceGraphic"/>
      </feMerge>
    </filter>
  </defs>

  <!-- 배경 없음(완전 투명) -->

  <!-- 상단: 심볼 -->
  <g filter="url(#softGlow)" transform="translate(110,40)">
    <!-- 바깥 C 링 -->
    <circle cx="180" cy="180" r="170"
            fill="none" stroke="url(#gold)" stroke-width="28" stroke-linecap="round"/>
    <!-- 내부 C 두께감 -->
    <path d="M290 118
             c-24-24-63-40-110-40
             c-88 0-140 58-140 110
             s52 110 140 110"
          fill="none" stroke="url(#goldRev)" stroke-width="22" stroke-linecap="round"/>

    <!-- 차트 막대 3개 -->
    <rect x="160" y="205" width="18" height="46" rx="5" fill="url(#gold)"/>
    <rect x="186" y="172" width="18" height="79" rx="5" fill="url(#gold)"/>
    <rect x="212" y="128" width="18" height="123" rx="5" fill="url(#gold)"/>

    <!-- T (세로 기둥 + 가로 바) -->
    <rect x="246" y="96" width="22" height="168" rx="7" fill="url(#gold)"/>
    <rect x="212" y="96" width="56" height="22" rx="7" fill="url(#goldRev)"/>
  </g>

  <!-- 우측: 워드마크 (Chartory Tech) -->
  <g transform="translate(420,140)" font-family="Segoe UI, Noto Sans, Arial, sans-serif"
     font-weight="800" fill="url(#gold)" filter="url(#softGlow)">
    <text x="0" y="120" font-size="96">Chartory</text>
    <text x="0" y="210" font-size="96">Tech</text>
  </g>
</svg>
